<svg width="49" height="48" viewBox="0 0 49 48" fill="none" xmlns="http://www.w3.org/2000/svg">
<path d="M15.5 6H10.5C8.29 6 6.5 7.79 6.5 10V15" stroke="#E5B062" stroke-width="1.5" stroke-linecap="round" stroke-linejoin="round"/>
<path d="M6.5 33V38C6.5 40.21 8.29 42 10.5 42H15.5" stroke="#E5B062" stroke-width="1.5" stroke-linecap="round" stroke-linejoin="round"/>
<path d="M33.5 42H38.5C40.71 42 42.5 40.21 42.5 38V33" stroke="#E5B062" stroke-width="1.5" stroke-linecap="round" stroke-linejoin="round"/>
<path d="M42.5 15V10C42.5 7.79 40.71 6 38.5 6H33.5" stroke="#E5B062" stroke-width="1.5" stroke-linecap="round" stroke-linejoin="round"/>
<path d="M24.5 24V34" stroke="#E5B062" stroke-width="1.5" stroke-linecap="round" stroke-linejoin="round"/>
<path d="M24.498 16C24.222 16 23.998 16.224 24 16.5C24 16.776 24.224 17 24.5 17C24.776 17 25 16.776 25 16.5C25 16.224 24.776 16 24.498 16" stroke="#E5B062" stroke-width="1.5" stroke-linecap="round" stroke-linejoin="round"/>
</svg>
