<svg width="24" height="25" viewBox="0 0 24 25" fill="none" xmlns="http://www.w3.org/2000/svg">
<path fill-rule="evenodd" clip-rule="evenodd" d="M17.2766 6.52177V6.52177C20.1909 9.43598 20.1909 14.1609 17.2766 17.0751L13.2434 21.1083C12.5567 21.795 11.4433 21.795 10.7566 21.1083L6.72335 17.0751C3.80914 14.1609 3.80914 9.43598 6.72335 6.52177V6.52177C9.63756 3.60755 14.3624 3.60755 17.2766 6.52177Z" stroke="#004A8C" stroke-width="1.5" stroke-linecap="round" stroke-linejoin="round"/>
<path fill-rule="evenodd" clip-rule="evenodd" d="M17.2766 6.52177V6.52177C20.1909 9.43598 20.1909 14.1609 17.2766 17.0751L13.2434 21.1083C12.5567 21.795 11.4433 21.795 10.7566 21.1083L6.72335 17.0751C3.80914 14.1609 3.80914 9.43598 6.72335 6.52177V6.52177C9.63756 3.60755 14.3624 3.60755 17.2766 6.52177Z" stroke="#004A8C" stroke-width="1.5" stroke-linecap="round" stroke-linejoin="round"/>
<circle cx="11.9999" cy="11.7987" r="2.56043" stroke="#004A8C" stroke-width="1.5" stroke-linecap="round" stroke-linejoin="round"/>
</svg>
