<svg width="24" height="25" viewBox="0 0 24 25" fill="none" xmlns="http://www.w3.org/2000/svg">
<path fill-rule="evenodd" clip-rule="evenodd" d="M10.8561 13.6444C9.68615 12.4744 8.80415 11.1644 8.21815 9.83536C8.09415 9.55436 8.16715 9.22536 8.38415 9.00836L9.20315 8.19036C9.87415 7.51936 9.87415 6.57036 9.28815 5.98436L8.11415 4.81036C7.33315 4.02936 6.06715 4.02936 5.28615 4.81036L4.63415 5.46236C3.89315 6.20336 3.58415 7.27236 3.78415 8.33236C4.27815 10.9454 5.79615 13.8064 8.24515 16.2554C10.6941 18.7044 13.5551 20.2224 16.1681 20.7164C17.2281 20.9164 18.2971 20.6074 19.0381 19.8664L19.6891 19.2154C20.4701 18.4344 20.4701 17.1684 19.6891 16.3874L18.5161 15.2144C17.9301 14.6284 16.9801 14.6284 16.3951 15.2144L15.4921 16.1184C15.2751 16.3354 14.9461 16.4084 14.6651 16.2844C13.3361 15.6974 12.0261 14.8144 10.8561 13.6444Z" stroke="#004A8C" stroke-width="1.5" stroke-linecap="round" stroke-linejoin="round"/>
</svg>
