<svg width="24" height="24" viewBox="0 0 24 24" fill="none" xmlns="http://www.w3.org/2000/svg">
<path fill-rule="evenodd" clip-rule="evenodd" d="M14.5858 4.58579L15.7071 5.70711C15.8946 5.89464 16.149 6 16.4142 6H19C20.1046 6 21 6.89543 21 8V17C21 18.1046 20.1046 19 19 19H5C3.89543 19 3 18.1046 3 17V8C3 6.89543 3.89543 6 5 6H7.58579C7.851 6 8.10535 5.89464 8.29289 5.70711L9.41421 4.58579C9.78928 4.21071 10.298 4 10.8284 4H13.1716C13.702 4 14.2107 4.21071 14.5858 4.58579Z" stroke="#A5A5A5" stroke-width="1.5" stroke-linecap="round" stroke-linejoin="round"/>
<circle cx="12" cy="12" r="4" stroke="#A5A5A5" stroke-width="1.5" stroke-linecap="round" stroke-linejoin="round"/>
<path d="M18.05 9.00007C18.05 9.02767 18.0276 9.05001 18 9.05C17.9724 9.04999 17.95 9.02761 17.95 9.00002C17.95 8.97242 17.9723 8.95003 17.9999 8.95C18.0132 8.94998 18.026 8.95525 18.0354 8.96465C18.0448 8.97404 18.05 8.98679 18.05 9.00007" stroke="#A5A5A5" stroke-width="1.5" stroke-linecap="round" stroke-linejoin="round"/>
</svg>
