<svg width="20" height="20" viewBox="0 0 20 20" fill="none" xmlns="http://www.w3.org/2000/svg">
<path fill-rule="evenodd" clip-rule="evenodd" d="M9.04842 10.9533C8.07342 9.97834 7.33842 8.88667 6.85008 7.77917C6.74675 7.545 6.80758 7.27084 6.98842 7.09L7.67092 6.40834C8.23008 5.84917 8.23008 5.05834 7.74175 4.57L6.76342 3.59167C6.11258 2.94084 5.05758 2.94084 4.40675 3.59167L3.86342 4.135C3.24592 4.7525 2.98842 5.64334 3.15508 6.52667C3.56675 8.70417 4.83175 11.0883 6.87258 13.1292C8.91342 15.17 11.2976 16.435 13.4751 16.8467C14.3584 17.0133 15.2492 16.7558 15.8667 16.1383L16.4092 15.5958C17.0601 14.945 17.0601 13.89 16.4092 13.2392L15.4317 12.2617C14.9434 11.7733 14.1517 11.7733 13.6642 12.2617L12.9117 13.015C12.7309 13.1958 12.4567 13.2567 12.2226 13.1533C11.1151 12.6642 10.0234 11.9283 9.04842 10.9533Z" stroke="#E5B062" stroke-width="1.5" stroke-linecap="round" stroke-linejoin="round"/>
</svg>
