<svg width="20" height="20" viewBox="0 0 20 20" fill="none" xmlns="http://www.w3.org/2000/svg">
<path d="M9.9987 16.6667V12.5" stroke="#E5B062" stroke-width="1.5" stroke-linecap="round" stroke-linejoin="round"/>
<path fill-rule="evenodd" clip-rule="evenodd" d="M5.825 12.5H14.175C14.6308 12.5 15 12.1308 15 11.675V11.675C15 11.4083 14.8717 11.1583 14.6542 11.0033L12.0833 9.16668V6.66668L14.2125 5.24751C14.4442 5.09251 14.5833 4.83251 14.5833 4.55418V4.16668C14.5833 3.70668 14.21 3.33334 13.75 3.33334H6.25C5.79 3.33334 5.41667 3.70668 5.41667 4.16668V4.55418C5.41667 4.83251 5.55583 5.09334 5.7875 5.24751L7.91667 6.66668V9.16668L5.34583 11.0033C5.12833 11.1583 5 11.4083 5 11.675V11.675C5 12.1308 5.36917 12.5 5.825 12.5V12.5Z" stroke="#E5B062" stroke-width="1.5" stroke-linecap="round" stroke-linejoin="round"/>
</svg>
