<svg width="20" height="20" viewBox="0 0 20 20" fill="none" xmlns="http://www.w3.org/2000/svg">
<path d="M5.83203 6.66667V3.33333C5.83203 2.87333 6.20536 2.5 6.66536 2.5H13.332C13.792 2.5 14.1654 2.87333 14.1654 3.33333V6.66667" stroke="#E5B062" stroke-width="1.5" stroke-linecap="round" stroke-linejoin="round"/>
<path d="M5.83333 14.1667H4.16667C3.24583 14.1667 2.5 13.4208 2.5 12.5V8.33332C2.5 7.41249 3.24583 6.66666 4.16667 6.66666H15.8333C16.7542 6.66666 17.5 7.41249 17.5 8.33332V12.5C17.5 13.4208 16.7542 14.1667 15.8333 14.1667H14.1667" stroke="#E5B062" stroke-width="1.5" stroke-linecap="round" stroke-linejoin="round"/>
<path fill-rule="evenodd" clip-rule="evenodd" d="M5.83203 11.5H14.1654V16.6667C14.1654 17.1267 13.792 17.5 13.332 17.5H6.66536C6.20536 17.5 5.83203 17.1267 5.83203 16.6667V11.5Z" stroke="#E5B062" stroke-width="1.5" stroke-linecap="round" stroke-linejoin="round"/>
<path d="M5.83203 9.16667H6.66536" stroke="#E5B062" stroke-width="1.5" stroke-linecap="round" stroke-linejoin="round"/>
</svg>
