<svg width="234" height="32" viewBox="0 0 234 32" fill="none" xmlns="http://www.w3.org/2000/svg">
<g clip-path="url(#clip0_2346_1842)">
<path d="M18.7593 21.5099C18.7593 15.2583 22.6311 9.96028 28.1389 7.62915V21.5099H25.0305V13.6159V13.457C23.0674 15.5762 21.9222 18.3841 21.9222 21.457H18.7593V21.5099Z" fill="#004A8C"/>
<path d="M0 21.5099C0 9.80131 9.76136 0.317871 21.8131 0.317871H21.9767H34.3556V21.4569H31.1382V3.65562L31.3563 3.54966C26.1212 4.34436 21.595 7.31125 18.7593 11.4437H18.7047V3.60264V3.49668C9.87042 4.92714 3.10837 12.4503 3.10837 21.4569L0 21.5099Z" fill="#004A8C"/>
<path d="M9.32532 21.404C9.32532 18.2782 10.525 15.4172 12.5428 13.245V13.404V21.404H15.7056V7.62915V7.52319C10.1433 9.85432 6.27148 15.2053 6.27148 21.457H6.32602L9.32532 21.404Z" fill="#004A8C"/>
<path d="M34.5192 28.8213H0V31.7882H34.5192V28.8213Z" fill="#004A8C"/>
<path d="M34.5192 22.8875H0V24.3709H34.5192V22.8875Z" fill="#004A8C"/>
<path d="M34.5192 25.8542H0V27.3377H34.5192V25.8542Z" fill="#004A8C"/>
<path d="M46.9526 0.37085L49.7883 18.649L50.0065 20.9271H50.1701L50.3882 18.649L53.1694 0.37085H62.1673V31.6291H56.1141V11.6556L56.2777 8.15893H56.1141L55.7324 11.3377L52.6786 31.6291H47.5525L44.4986 11.3377L44.1715 8.15893H44.0079L44.1715 11.6556V31.6291H38.1729V5.8278V0.37085H46.9526Z" fill="#004A8C"/>
<path d="M74.3282 32C67.4571 32 65.0576 28.5033 65.0576 16C65.0576 3.49669 67.4571 0 74.3282 0C81.2538 0 83.5988 3.39073 83.5988 16C83.5988 28.5563 81.1993 32 74.3282 32ZM74.3282 5.56291C72.1469 5.56291 71.9833 8 71.9833 16C71.9833 24 72.0923 26.3841 74.3282 26.3841C76.6731 26.3841 76.7276 23.947 76.7276 16C76.7276 8.05298 76.564 5.56291 74.3282 5.56291Z" fill="#004A8C"/>
<path d="M100.286 5.93377C99.1951 5.93377 99.086 5.93377 97.7227 5.93377C93.7418 5.93377 93.4691 8.31787 93.4691 15.947C93.4691 23.2053 93.7963 26.1722 97.8317 26.1722C99.4132 26.1722 100.34 26.2252 100.558 26.1192L100.886 31.4702C100.558 31.5762 99.1951 31.7351 96.6866 31.7351C88.8884 31.7351 86.5435 28.8212 86.5435 16.106C86.5435 3.4437 88.8884 0.211914 96.8502 0.211914C99.1405 0.211914 99.7404 0.317874 100.613 0.370854L100.286 5.93377Z" fill="#004A8C"/>
<path d="M108.902 0.37085C113.483 0.37085 121.39 0.37085 121.39 0.37085V6.19866H115.61V31.6821H109.066V6.14568H102.249C102.249 6.14568 102.195 0.37085 108.902 0.37085Z" fill="#004A8C"/>
<path d="M148.602 0.37085C153.182 0.37085 161.09 0.37085 161.09 0.37085V6.19866H155.309V31.6821H148.711V6.14568H141.894C141.949 6.14568 141.894 0.37085 148.602 0.37085Z" fill="#004A8C"/>
<path d="M221.512 0.37085C226.093 0.37085 234 0.37085 234 0.37085V6.19866H228.219V31.6821H221.621V6.14568H214.859C214.859 6.14568 214.804 0.37085 221.512 0.37085Z" fill="#004A8C"/>
<path d="M212.896 5.93377C211.805 5.93377 211.696 5.93377 210.333 5.93377C206.352 5.93377 206.079 8.31787 206.079 15.947C206.079 23.2053 206.407 26.1722 210.442 26.1722C212.024 26.1722 212.951 26.2252 213.169 26.1192L213.496 31.4702C213.169 31.5762 211.805 31.7351 209.297 31.7351C201.499 31.7351 199.154 28.8212 199.154 16.106C199.154 3.4437 201.499 0.211914 209.46 0.211914C211.751 0.211914 212.351 0.317874 213.223 0.370854L212.896 5.93377Z" fill="#004A8C"/>
<path d="M132.188 32C125.316 32 122.917 28.5033 122.917 16C122.917 3.49669 125.316 0 132.188 0C139.113 0 141.458 3.39073 141.458 16C141.458 28.5563 139.059 32 132.188 32ZM132.188 5.56291C130.006 5.56291 129.843 8 129.843 16C129.843 24 129.952 26.3841 132.188 26.3841C134.532 26.3841 134.587 23.947 134.587 16C134.587 8.05298 134.423 5.56291 132.188 5.56291Z" fill="#004A8C"/>
<path d="M168.888 0.37085C174.123 0.37085 172.978 0.37085 172.978 0.37085C178.159 0.37085 179.958 3.07284 179.958 11.2318C179.958 19.3377 177.886 22.1987 172.978 22.1987H169.924V31.6291H163.326V6.03972C163.326 6.03972 163.326 0.37085 168.888 0.37085ZM169.924 16.4238H170.96C172.651 16.4238 173.087 15.4172 173.087 11.2848C173.087 7.31125 172.705 6.14568 170.96 6.14568H169.924V16.4238Z" fill="#004A8C"/>
<path d="M188.738 0.37085C193.973 0.37085 196.536 0.37085 196.536 0.37085V6.19866H189.719V12.7152H195.609V18.543H189.719V25.8013H196.645V31.6291H183.066V5.61588C183.121 5.61588 183.066 0.37085 188.738 0.37085Z" fill="#004A8C"/>
</g>
<defs>
<clipPath id="clip0_2346_1842">
<rect width="234" height="32" fill="white"/>
</clipPath>
</defs>
</svg>
