<svg width="20" height="14" viewBox="0 0 20 14" fill="none" xmlns="http://www.w3.org/2000/svg">
<path fill-rule="evenodd" clip-rule="evenodd" d="M19.5413 1.73742C19.6796 1.26264 19.5413 0.913086 18.8788 0.913086H16.6913C16.1347 0.913086 15.878 1.21482 15.7388 1.54786C15.7388 1.54786 14.6264 4.32693 13.0506 6.13211C12.5406 6.65557 12.3089 6.82166 12.0306 6.82166C11.8914 6.82166 11.6823 6.65557 11.6823 6.17993V1.73742C11.6823 1.16699 11.5289 0.913086 11.0656 0.913086H7.62567C7.27818 0.913086 7.06902 1.17743 7.06902 1.42873C7.06902 1.96872 7.85734 2.09393 7.93817 3.6139V6.91644C7.93817 7.64077 7.81067 7.77207 7.53234 7.77207C6.79069 7.77207 4.98656 4.97996 3.91575 1.78524C3.70826 1.16352 3.49826 0.913086 2.93911 0.913086H0.749984C0.124997 0.913086 0 1.21482 0 1.54786C0 2.14089 0.741651 5.08691 3.45409 8.98335C5.26239 11.6442 7.80817 13.0867 10.1273 13.0867C11.5181 13.0867 11.6898 12.7667 11.6898 12.2146V10.2033C11.6898 9.56247 11.8214 9.43465 12.2622 9.43465C12.5872 9.43465 13.1431 9.6016 14.4414 10.8842C15.9247 12.405 16.1688 13.0867 17.0038 13.0867H19.1913C19.8163 13.0867 20.1296 12.7667 19.9496 12.1337C19.7513 11.5042 19.0429 10.5903 18.1038 9.50595C17.5938 8.88857 16.8288 8.22337 16.5963 7.89033C16.2722 7.46338 16.3647 7.27295 16.5963 6.89296C16.5963 6.89296 19.2629 3.04435 19.5404 1.73742H19.5413Z" fill="#A5A5A5"/>
</svg>
