<svg width="20" height="16" viewBox="0 0 20 16" fill="none" xmlns="http://www.w3.org/2000/svg">
<path fill-rule="evenodd" clip-rule="evenodd" d="M19.7857 3.82425C19.6771 3.07557 19.4086 2.36199 19 1.73634C18.4556 1.20063 17.747 0.883597 17 0.841519C14.2143 0.692383 10 0.692383 10 0.692383C10 0.692383 5.78571 0.692383 3 0.916088C2.24888 0.860117 1.51378 1.1616 1 1.73634C0.580933 2.35614 0.311393 3.0724 0.214286 3.82425C0.0827499 4.93771 0.0112088 6.05799 0 7.17982V8.74576C0.00756029 9.86773 0.0791155 10.9882 0.214286 12.1013C0.322881 12.85 0.591415 13.5636 1 14.1892C1.61504 14.7488 2.39862 15.0655 3.21429 15.0841C4.78571 15.2332 10 15.3078 10 15.3078C10 15.3078 14.2143 15.3078 17 15.0841C17.747 15.042 18.4556 14.725 19 14.1892C19.4191 13.5694 19.6886 12.8532 19.7857 12.1013C19.9172 10.9879 19.9888 9.86759 20 8.74576V7.17982C19.9888 6.05799 19.9172 4.93771 19.7857 3.82425ZM7.92856 10.6848V4.79395L13.3571 7.70211L7.92856 10.6848Z" fill="#A5A5A5"/>
</svg>
