<svg width="48" height="48" viewBox="0 0 48 48" fill="none" xmlns="http://www.w3.org/2000/svg">
<path fill-rule="evenodd" clip-rule="evenodd" d="M24 42V42C14.058 42 6 33.942 6 24V24C6 14.058 14.058 6 24 6V6C33.942 6 42 14.058 42 24V24C42 33.942 33.942 42 24 42Z" stroke="#E5B062" stroke-width="1.5" stroke-linecap="round" stroke-linejoin="round"/>
<path d="M24 34V24H22" stroke="#E5B062" stroke-width="1.5" stroke-linecap="round" stroke-linejoin="round"/>
<path d="M23.498 16C23.222 16 22.998 16.224 23 16.5C23 16.776 23.224 17 23.5 17C23.776 17 24 16.776 24 16.5C24 16.224 23.776 16 23.498 16" stroke="#E5B062" stroke-width="1.5" stroke-linecap="round" stroke-linejoin="round"/>
</svg>
