<svg width="222" height="32" viewBox="0 0 222 32" fill="none" xmlns="http://www.w3.org/2000/svg">
<g clip-path="url(#clip0_2326_7625)">
<path d="M17.7969 21.5099C17.7969 15.2583 21.4701 9.96026 26.6955 7.62914V21.5099H23.7465V13.6159V13.457C21.884 15.5762 20.7976 18.3841 20.7976 21.457H17.7969V21.5099Z" fill="white"/>
<path d="M0 21.5099C0 9.80132 9.26078 0.317879 20.6945 0.317879H20.8497H32.5938V21.457H29.5414V3.65563L29.7483 3.54967C24.7816 4.34437 20.4875 7.31126 17.7972 11.4437H17.7455V3.60265V3.49669C9.36425 4.92715 2.94896 12.4503 2.94896 21.457L0 21.5099Z" fill="white"/>
<path d="M8.84645 21.404C8.84645 18.2781 9.98464 15.4172 11.8989 13.245V13.404V21.404H14.8996V7.62914V7.52318C9.62249 9.8543 5.94922 15.2053 5.94922 21.457H6.00096L8.84645 21.404Z" fill="white"/>
<path d="M32.749 28.8212H0V31.7881H32.749V28.8212Z" fill="white"/>
<path d="M32.749 22.8874H0V24.3709H32.749V22.8874Z" fill="white"/>
<path d="M32.749 25.8543H0V27.3378H32.749V25.8543Z" fill="white"/>
<path d="M44.5444 0.370861L47.2347 18.649L47.4416 20.9272H47.5968L47.8038 18.649L50.4423 0.370861H58.9788V31.6291H53.2361V11.6556L53.3913 8.15894H53.2361L52.8739 11.3377L49.9767 31.6291H45.1135L42.2162 11.3377L41.9058 8.15894H41.7506L41.9058 11.6556V31.6291H36.2148V5.82781V0.370861H44.5444Z" fill="white"/>
<path d="M70.5159 32C63.9971 32 61.7207 28.5033 61.7207 16C61.7207 3.49669 63.9971 0 70.5159 0C77.0864 0 79.311 3.39073 79.311 16C79.311 28.5563 77.0346 32 70.5159 32ZM70.5159 5.56291C68.4464 5.56291 68.2912 8 68.2912 16C68.2912 24 68.3947 26.3841 70.5159 26.3841C72.7405 26.3841 72.7922 23.947 72.7922 16C72.7922 8.05298 72.637 5.56291 70.5159 5.56291Z" fill="white"/>
<path d="M95.143 5.93378C94.1083 5.93378 94.0048 5.93378 92.7114 5.93378C88.9346 5.93378 88.676 8.31788 88.676 15.947C88.676 23.2053 88.9864 26.1722 92.8149 26.1722C94.3152 26.1722 95.1947 26.2252 95.4017 26.1192L95.7121 31.4702C95.4017 31.5762 94.1083 31.7351 91.7284 31.7351C84.3301 31.7351 82.1055 28.8212 82.1055 16.106C82.1055 3.44371 84.3301 0.211922 91.8836 0.211922C94.0565 0.211922 94.6256 0.317882 95.4534 0.370862L95.143 5.93378Z" fill="white"/>
<path d="M103.318 0.370861C107.664 0.370861 115.165 0.370861 115.165 0.370861V6.19867H109.681V31.6821H103.473V6.1457H97.0059C97.0059 6.1457 96.9541 0.370861 103.318 0.370861Z" fill="white"/>
<path d="M140.981 0.370861C145.327 0.370861 152.828 0.370861 152.828 0.370861V6.19867H147.344V31.6821H141.084V6.1457H134.617C134.669 6.1457 134.617 0.370861 140.981 0.370861Z" fill="white"/>
<path d="M210.152 0.370861C214.498 0.370861 221.999 0.370861 221.999 0.370861V6.19867H216.515V31.6821H210.255V6.1457H203.84C203.84 6.1457 203.788 0.370861 210.152 0.370861Z" fill="white"/>
<path d="M201.979 5.93378C200.944 5.93378 200.841 5.93378 199.547 5.93378C195.771 5.93378 195.512 8.31788 195.512 15.947C195.512 23.2053 195.822 26.1722 199.651 26.1722C201.151 26.1722 202.031 26.2252 202.238 26.1192L202.548 31.4702C202.238 31.5762 200.944 31.7351 198.564 31.7351C191.166 31.7351 188.941 28.8212 188.941 16.106C188.941 3.44371 191.166 0.211922 198.72 0.211922C200.892 0.211922 201.462 0.317882 202.289 0.370862L201.979 5.93378Z" fill="white"/>
<path d="M125.408 32C118.89 32 116.613 28.5033 116.613 16C116.613 3.49669 118.89 0 125.408 0C131.979 0 134.204 3.39073 134.204 16C134.204 28.5563 131.927 32 125.408 32ZM125.408 5.56291C123.339 5.56291 123.184 8 123.184 16C123.184 24 123.287 26.3841 125.408 26.3841C127.633 26.3841 127.685 23.947 127.685 16C127.685 8.05298 127.53 5.56291 125.408 5.56291Z" fill="white"/>
<path d="M160.226 0.370861C165.193 0.370861 164.107 0.370861 164.107 0.370861C169.021 0.370861 170.729 3.07285 170.729 11.2318C170.729 19.3377 168.763 22.1987 164.107 22.1987H161.209V31.6291H154.949V6.03973C154.949 6.03973 154.949 0.370861 160.226 0.370861ZM161.209 16.4238H162.192C163.796 16.4238 164.21 15.4172 164.21 11.2848C164.21 7.31126 163.848 6.1457 162.192 6.1457H161.209V16.4238Z" fill="white"/>
<path d="M179.058 0.370861C184.025 0.370861 186.457 0.370861 186.457 0.370861V6.19868H179.99V12.7152H185.577V18.543H179.99V25.8013H186.56V31.6291H173.678V5.61589C173.729 5.61589 173.678 0.370861 179.058 0.370861Z" fill="white"/>
</g>
<defs>
<clipPath id="clip0_2326_7625">
<rect width="222" height="32" fill="white"/>
</clipPath>
</defs>
</svg>
