<svg width="20" height="20" viewBox="0 0 20 20" fill="none" xmlns="http://www.w3.org/2000/svg">
<path fill-rule="evenodd" clip-rule="evenodd" d="M14.397 5.01841V5.01841C16.8255 7.44692 16.8255 11.3843 14.397 13.8128L11.036 17.1738C10.4637 17.7461 9.53583 17.7461 8.96355 17.1738L5.60255 13.8128C3.17404 11.3843 3.17404 7.44692 5.60255 5.01841V5.01841C8.03106 2.5899 11.9685 2.5899 14.397 5.01841Z" stroke="white" stroke-width="1.5" stroke-linecap="round" stroke-linejoin="round"/>
<path fill-rule="evenodd" clip-rule="evenodd" d="M14.397 5.01841V5.01841C16.8255 7.44692 16.8255 11.3843 14.397 13.8128L11.036 17.1738C10.4637 17.7461 9.53583 17.7461 8.96355 17.1738L5.60255 13.8128C3.17404 11.3843 3.17404 7.44692 5.60255 5.01841V5.01841C8.03106 2.5899 11.9685 2.5899 14.397 5.01841Z" stroke="white" stroke-width="1.5" stroke-linecap="round" stroke-linejoin="round"/>
<circle cx="10" cy="9.41576" r="2.13369" stroke="white" stroke-width="1.5" stroke-linecap="round" stroke-linejoin="round"/>
</svg>
