<svg width="32" height="32" viewBox="0 0 32 32" fill="none" xmlns="http://www.w3.org/2000/svg">
<path fill-rule="evenodd" clip-rule="evenodd" d="M26.4653 21.8613C27.4387 20.128 28 18.1307 28 16C28 9.372 22.628 4 16 4C9.372 4 4 9.372 4 16C4 22.628 9.372 28 16 28C18.1307 28 20.128 27.4387 21.8613 26.4653L28 28L26.4653 21.8613Z" stroke="#209AD7" stroke-width="1.5882" stroke-linecap="round" stroke-linejoin="round"/>
<path d="M15.7639 16.4307C15.8946 16.3 16.1052 16.3 16.2359 16.4307C16.3666 16.5613 16.3666 16.772 16.2359 16.9027C16.1052 17.0333 15.8946 17.0333 15.7639 16.9027C15.6346 16.772 15.6346 16.5613 15.7639 16.4307" stroke="#209AD7" stroke-width="1.5" stroke-linecap="round" stroke-linejoin="round"/>
<path d="M10.4307 16.4307C10.5613 16.3 10.772 16.3 10.9027 16.4307C11.0333 16.5613 11.0333 16.772 10.9027 16.9027C10.772 17.0333 10.5613 17.0333 10.4307 16.9027C10.3013 16.772 10.3013 16.5613 10.4307 16.4307" stroke="#209AD7" stroke-width="1.5" stroke-linecap="round" stroke-linejoin="round"/>
<path d="M21.0974 16.4307C21.2281 16.3 21.4387 16.3 21.5694 16.4307C21.7001 16.5613 21.7001 16.772 21.5694 16.9027C21.4387 17.0333 21.2281 17.0333 21.0974 16.9027C20.9681 16.772 20.9681 16.5613 21.0974 16.4307" stroke="#209AD7" stroke-width="1.5" stroke-linecap="round" stroke-linejoin="round"/>
</svg>
