<svg width="20" height="20" viewBox="0 0 20 20" fill="none" xmlns="http://www.w3.org/2000/svg">
<path fill-rule="evenodd" clip-rule="evenodd" d="M9.04671 10.9533C8.07171 9.97834 7.33671 8.88667 6.84837 7.77917C6.74504 7.545 6.80587 7.27084 6.98671 7.09L7.66921 6.40834C8.22837 5.84917 8.22837 5.05834 7.74004 4.57L6.76171 3.59167C6.11087 2.94084 5.05587 2.94084 4.40504 3.59167L3.86171 4.135C3.24421 4.7525 2.98671 5.64334 3.15337 6.52667C3.56504 8.70417 4.83004 11.0883 6.87087 13.1292C8.91171 15.17 11.2959 16.435 13.4734 16.8467C14.3567 17.0133 15.2475 16.7558 15.865 16.1383L16.4075 15.5958C17.0584 14.945 17.0584 13.89 16.4075 13.2392L15.43 12.2617C14.9417 11.7733 14.15 11.7733 13.6625 12.2617L12.91 13.015C12.7292 13.1958 12.455 13.2567 12.2209 13.1533C11.1134 12.6642 10.0217 11.9283 9.04671 10.9533Z" stroke="white" stroke-width="1.5" stroke-linecap="round" stroke-linejoin="round"/>
</svg>
