<svg width="20" height="16" viewBox="0 0 20 16" fill="none" xmlns="http://www.w3.org/2000/svg">
<path fill-rule="evenodd" clip-rule="evenodd" d="M19.7857 3.82417C19.6771 3.0755 19.4086 2.36191 19 1.73626C18.4556 1.20055 17.747 0.88352 17 0.841443C14.2143 0.692307 10 0.692307 10 0.692307C10 0.692307 5.78571 0.692307 3 0.916011C2.24888 0.860041 1.51378 1.16153 1 1.73626C0.580933 2.35607 0.311393 3.07233 0.214286 3.82417C0.0827499 4.93763 0.0112088 6.05792 0 7.17975V8.74568C0.00756029 9.86766 0.0791155 10.9882 0.214286 12.1013C0.322881 12.8499 0.591415 13.5635 1 14.1892C1.61504 14.7488 2.39862 15.0654 3.21429 15.084C4.78571 15.2331 10 15.3077 10 15.3077C10 15.3077 14.2143 15.3077 17 15.084C17.747 15.0419 18.4556 14.7249 19 14.1892C19.4191 13.5694 19.6886 12.8531 19.7857 12.1013C19.9172 10.9878 19.9888 9.86751 20 8.74568V7.17975C19.9888 6.05792 19.9172 4.93763 19.7857 3.82417ZM7.92856 10.6848V4.79387L13.3571 7.70203L7.92856 10.6848Z" fill="white"/>
</svg>
